# xmcd
#
# Track frame offsets:
#	150
#	12950
#	34415
#	53877
#	71030
#	89715
#	109692
#	127152
#	146337
#	159130
#	180582
#	200047
#	217182
#	235815
#	255805
#	273225
#
# Disc length: 3899 seconds
#
# Revision: 1
# Processed by: cddbd v1.5.1PL2 Copyright (c) Steve Scherf et al.
# Submitted via: audiograbber 1.83.01
#
DISCID=e80f3910
DTITLE=Sound Choice - sc2170
DYEAR=1900
DGENRE=Karaoke Country
TTITLE0=Wells, Kitty - It Wasn't God Who Made Honky Tonk Angels
TTITLE1=Loveless, Patty - When The Fallen Angels Fly
TTITLE2=Rimes, Leann - On The Side Of Angels
TTITLE3=Judds - Guardian Angels
TTITLE4=McBride, Martina - Wild Angels
TTITLE5=Alabama - Angels Among Us
TTITLE6=McCready, Mindy - Ten Thousand Angels
TTITLE7=Rimes, Leann - Ten Thousand Angels Cried
TTITLE8=Wells, Kitty - It Wasn't God Who Made Honky Tonk Angels (Vocal)
TTITLE9=Loveless, Patty - When The Fallen Angels Fly (Vocal)
TTITLE10=Rimes, Leann - On The Side Of Angels (Vocal)
TTITLE11=Judds - Guardian Angels (Vocal)
TTITLE12=McBride, Martina - Wild Angels (Vocal)
TTITLE13=Alabama - Angels Among Us (Vocal)
TTITLE14=McCready, Mindy - Ten Thousand Angels (Vocal)
TTITLE15=Rimes, Leann - Ten Thousand Angels Cried (Vocal)
EXTD=
EXTT0=
EXTT1=
EXTT2=
EXTT3=
EXTT4=
EXTT5=
EXTT6=
EXTT7=
EXTT8=
EXTT9=
EXTT10=
EXTT11=
EXTT12=
EXTT13=
EXTT14=
EXTT15=
PLAYORDER=
